<svg xmlns="http://www.w3.org/2000/svg" width="146.7" height="22.1" viewBox="0 0 146.7 22.1">
  <g id="Logotipo_Salvatec_fondo_oscuro-01" data-name="Logotipo Salvatec fondo oscuro-01" transform="translate(-1.8 -2.1)">
    <path id="Trazado_1" data-name="Trazado 1" d="M12.3,19.9a2.878,2.878,0,0,0,.9-2.1,2.723,2.723,0,0,0-.9-2.1,3.373,3.373,0,0,0-2.2-.9H8.2A6.105,6.105,0,0,1,3.7,13,5.826,5.826,0,0,1,1.8,8.5,5.974,5.974,0,0,1,3.7,4,6.437,6.437,0,0,1,8.2,2.2h1.9A6.105,6.105,0,0,1,14.6,4a5.826,5.826,0,0,1,1.9,4.5H13.2a2.723,2.723,0,0,0-.9-2.1,2.94,2.94,0,0,0-2.2-.9H8.2A3.1,3.1,0,0,0,6,6.4a2.878,2.878,0,0,0-.9,2.1A2.723,2.723,0,0,0,6,10.6a2.94,2.94,0,0,0,2.2.9h1.9a6.105,6.105,0,0,1,4.5,1.8,5.826,5.826,0,0,1,1.9,4.5,5.974,5.974,0,0,1-1.9,4.5,6.437,6.437,0,0,1-4.5,1.8H8.2a6.105,6.105,0,0,1-4.5-1.8,5.826,5.826,0,0,1-1.9-4.5H5.1A2.723,2.723,0,0,0,6,19.9a3.373,3.373,0,0,0,2.2.9h1.9A3.1,3.1,0,0,0,12.3,19.9Z" fill="#fff"/>
    <path id="Trazado_2" data-name="Trazado 2" d="M20,24.1l1.2-4.9a8.2,8.2,0,0,1,2.7-4.3,10.1,10.1,0,0,1,4.6-1.8l3.4-.2L29.2,2.1h3.3L38,24H34.7l-2-7.9h-4c-2.2.2-3.6,1.2-4.1,3L23.4,24H20.1Z" fill="#fff"/>
    <path id="Trazado_3" data-name="Trazado 3" d="M45.8,20.8H57.2v3.3H42.5V2.1h3.3V20.8Z" fill="#fff"/>
    <path id="Trazado_4" data-name="Trazado 4" d="M60.2,2.1l4.7,18.7h.4L70,2.1h3.3L67.7,24H62.3L56.8,2.1h3.3Z" fill="#fff"/>
    <path id="Trazado_5" data-name="Trazado 5" d="M73.3,24.1l1.2-4.9a8.2,8.2,0,0,1,2.7-4.3,10.1,10.1,0,0,1,4.6-1.8l3.4-.2L82.5,2.1h3.3L91.3,24H88l-2-7.9H82c-2.2.2-3.6,1.2-4.1,3L76.7,24H73.4Z" fill="#fff"/>
    <path id="Trazado_6" data-name="Trazado 6" d="M106.4,5.4h-5.7V24.1H97.4V5.4H91.7V2.1h14.7Z" fill="#e02142"/>
    <path id="Trazado_7" data-name="Trazado 7" d="M110.9,2.1h14.7V5.4H114.2v6.1h9.2v3.3h-9.2v6.1h11.4v3.3H110.9Z" fill="#e02142"/>
    <path id="Trazado_8" data-name="Trazado 8" d="M130.5,18.6a10.575,10.575,0,0,1-1.5-5.5,10.575,10.575,0,0,1,1.5-5.5,11.234,11.234,0,0,1,4.1-4,10.931,10.931,0,0,1,5.6-1.5,9.469,9.469,0,0,1,4.6,1,10.786,10.786,0,0,1,3.7,2.6L146.2,8a8.6,8.6,0,0,0-2.6-2,7.246,7.246,0,0,0-3.3-.7,7.472,7.472,0,0,0-5.5,2.3,7.472,7.472,0,0,0-2.3,5.5,7.637,7.637,0,0,0,2.3,5.5,7.257,7.257,0,0,0,5.5,2.3,5.188,5.188,0,0,0,3.3-.7,7.268,7.268,0,0,0,2.6-2l2.3,2.3a10.786,10.786,0,0,1-3.7,2.6,11.478,11.478,0,0,1-4.6,1,11.767,11.767,0,0,1-5.6-1.5,11.234,11.234,0,0,1-4.1-4Z" fill="#e02142"/>
  </g>
</svg>
