<?xml version="1.0" encoding="utf-8"?>
<!-- Generator: Adobe Illustrator 28.1.0, SVG Export Plug-In . SVG Version: 6.00 Build 0)  -->
<svg version="1.1" id="Capa_1" xmlns="http://www.w3.org/2000/svg" xmlns:xlink="http://www.w3.org/1999/xlink" x="0px" y="0px"
	 viewBox="0 0 109.4 23.3" style="enable-background:new 0 0 109.4 23.3;" xml:space="preserve">
<style type="text/css">
	.st0{fill:#FFFFFF;}
	.st1{fill:#E2FF65;}
</style>
<g>
	<g>
		<polygon class="st0" points="7.1,12.2 10.7,6 14.2,12.2 17.6,18.1 19.8,18.1 15.2,10.2 10.7,2.3 6.1,10.2 1.6,18.1 3.7,18.1 		"/>
		<polygon class="st0" points="78.1,4.9 77.1,5.4 76.1,6 76.1,4.9 76.1,3.7 77.1,4.3 		"/>
		<g>
			<polygon class="st1" points="13.5,14.3 11.3,13 9.1,11.7 9.1,16.8 			"/>
		</g>
		<g>
			<path class="st0" d="M22.4,18.1h-2V7.8h2v2.7c0.2-0.4,0.5-0.8,0.9-1.2c0.4-0.4,0.8-0.7,1.2-0.9c0.5-0.3,1-0.5,1.5-0.6
				c0.5-0.1,1.1-0.2,1.8-0.2v1.6h-0.2c-0.7,0-1.4,0.1-2,0.3c-0.6,0.2-1.2,0.5-1.7,0.9c-0.5,0.4-0.9,0.9-1.1,1.5
				c-0.3,0.6-0.4,1.3-0.4,2V18.1z"/>
			<path class="st0" d="M38.4,21.2V16c-0.3,0.3-0.6,0.6-0.9,0.9c-0.3,0.3-0.7,0.5-1.1,0.7C36,17.8,35.5,18,35,18.1
				c-0.5,0.1-1.1,0.2-1.7,0.2c-0.8,0-1.6-0.1-2.3-0.4c-0.8-0.2-1.4-0.6-2-1c-0.6-0.5-1.1-1-1.4-1.7C27.2,14.6,27,13.8,27,13
				c0-0.8,0.2-1.6,0.5-2.3C27.9,10,28.4,9.5,29,9c0.6-0.5,1.3-0.8,2-1.1c0.8-0.2,1.5-0.4,2.3-0.4c0.6,0,1.2,0.1,1.7,0.2
				c0.5,0.1,1,0.3,1.4,0.5c0.4,0.2,0.8,0.4,1.1,0.7c0.3,0.3,0.6,0.5,0.9,0.8v-2h2v13.4H38.4z M38.1,11.3c-0.3-0.5-0.6-0.9-1.1-1.2
				c-0.5-0.3-1-0.6-1.5-0.8C34.9,9.1,34.3,9,33.7,9c-0.7,0-1.3,0.1-1.8,0.3c-0.6,0.2-1.1,0.4-1.5,0.8c-0.4,0.3-0.8,0.7-1,1.2
				c-0.2,0.5-0.4,1-0.4,1.7c0,0.6,0.1,1.2,0.4,1.6c0.2,0.5,0.6,0.9,1,1.3c0.4,0.3,0.9,0.6,1.5,0.8c0.6,0.2,1.2,0.3,1.8,0.3
				c0.6,0,1.2-0.1,1.8-0.3c0.6-0.2,1.1-0.5,1.5-0.8c0.5-0.3,0.8-0.8,1.1-1.3c0.3-0.5,0.4-1,0.4-1.6C38.5,12.3,38.4,11.8,38.1,11.3z"
				/>
			<path class="st0" d="M51.6,7.8h2v10.2h-2v-1.8c-0.4,0.6-1,1-1.7,1.4c-0.7,0.4-1.7,0.6-2.8,0.6c-0.8,0-1.5-0.1-2.1-0.3
				c-0.6-0.2-1.2-0.5-1.6-0.8c-0.4-0.4-0.8-0.8-1-1.3c-0.2-0.5-0.3-1.1-0.3-1.7V7.8h2v6c0,1,0.3,1.7,0.9,2.3
				c0.6,0.6,1.5,0.8,2.7,0.8c0.6,0,1.1-0.1,1.6-0.2c0.5-0.2,0.9-0.4,1.3-0.7c0.4-0.3,0.6-0.6,0.8-1c0.2-0.4,0.3-0.8,0.3-1.3V7.8z"/>
			<path class="st0" d="M57.2,15c0.3,0.4,0.6,0.8,1.1,1.1c0.4,0.3,0.9,0.5,1.4,0.7c0.5,0.2,1.1,0.2,1.7,0.2c0.9,0,1.7-0.1,2.4-0.4
				c0.7-0.3,1.3-0.6,1.8-1.1l1.2,0.9c-0.7,0.6-1.4,1-2.3,1.4c-0.9,0.3-1.9,0.5-3.2,0.5c-0.9,0-1.8-0.1-2.6-0.4
				c-0.8-0.3-1.5-0.6-2.1-1.1c-0.6-0.5-1.1-1-1.4-1.7c-0.4-0.7-0.5-1.4-0.5-2.2c0-0.7,0.2-1.4,0.5-2.1c0.3-0.7,0.8-1.2,1.3-1.7
				c0.6-0.5,1.2-0.9,2-1.1c0.8-0.3,1.6-0.4,2.6-0.4c1,0,1.8,0.1,2.6,0.4c0.8,0.3,1.4,0.7,2,1.2c0.5,0.5,0.9,1.1,1.2,1.7
				c0.3,0.7,0.4,1.4,0.4,2.1c0,0.1,0,0.1,0,0.2c0,0.1,0,0.2,0,0.3H56.7C56.7,14.1,56.9,14.6,57.2,15z M65.2,12.4
				c-0.1-0.5-0.2-0.9-0.4-1.3c-0.2-0.4-0.5-0.8-0.8-1.1c-0.3-0.3-0.8-0.6-1.3-0.8C62.2,9,61.6,8.9,61,8.9c-0.6,0-1.1,0.1-1.6,0.3
				c-0.5,0.2-0.9,0.4-1.3,0.7c-0.4,0.3-0.7,0.7-0.9,1.1c-0.2,0.4-0.4,0.9-0.5,1.4H65.2z"/>
			<path class="st0" d="M70.8,15.2c0,0.6,0.2,1.1,0.6,1.3c0.4,0.3,0.9,0.4,1.6,0.4c0.3,0,0.7,0,1-0.1c0.3-0.1,0.6-0.1,1-0.3v1.3
				c-0.3,0.1-0.7,0.3-1.1,0.3c-0.4,0.1-0.8,0.1-1.3,0.1c-0.5,0-1-0.1-1.5-0.2c-0.5-0.1-0.9-0.3-1.2-0.5c-0.3-0.2-0.6-0.5-0.8-0.9
				c-0.2-0.4-0.3-0.8-0.3-1.3V9.2h-1.8V7.8h1.8V4.7h2v3.1H75v1.3h-4.2V15.2z"/>
			<path class="st0" d="M76.1,18.1V7.8h2v10.2H76.1z"/>
			<path class="st0" d="M92.9,15.2c-0.4,0.7-0.8,1.2-1.4,1.7c-0.6,0.5-1.3,0.8-2,1.1c-0.8,0.2-1.5,0.4-2.3,0.4
				c-0.6,0-1.2-0.1-1.7-0.2s-1-0.3-1.4-0.5c-0.4-0.2-0.8-0.4-1.1-0.7c-0.3-0.3-0.6-0.5-0.9-0.8v5.1h-2V7.8h2v2.1
				C82.3,9.6,82.6,9.3,83,9c0.3-0.3,0.7-0.5,1.1-0.7c0.4-0.2,0.9-0.4,1.4-0.5c0.5-0.1,1.1-0.2,1.7-0.2c0.8,0,1.6,0.1,2.3,0.4
				c0.8,0.2,1.4,0.6,2,1c0.6,0.5,1.1,1,1.4,1.7c0.4,0.7,0.5,1.4,0.5,2.3C93.5,13.8,93.3,14.5,92.9,15.2z M91.1,11.3
				c-0.2-0.5-0.6-0.9-1-1.3c-0.4-0.3-0.9-0.6-1.5-0.8S87.4,9,86.8,9c-0.6,0-1.2,0.1-1.8,0.3c-0.6,0.2-1.1,0.5-1.5,0.8
				c-0.5,0.3-0.8,0.8-1.1,1.2c-0.3,0.5-0.4,1-0.4,1.6c0,0.6,0.1,1.1,0.4,1.6c0.3,0.5,0.6,0.9,1.1,1.3c0.5,0.3,1,0.6,1.5,0.8
				c0.6,0.2,1.2,0.3,1.8,0.3c0.6,0,1.2-0.1,1.8-0.3c0.6-0.2,1.1-0.4,1.5-0.8c0.4-0.3,0.8-0.7,1-1.2c0.2-0.5,0.4-1,0.4-1.7
				C91.4,12.4,91.3,11.8,91.1,11.3z"/>
			<path class="st0" d="M107,15c-0.4,0.7-0.8,1.2-1.4,1.7c-0.6,0.5-1.4,0.9-2.2,1.2c-0.9,0.3-1.8,0.4-2.8,0.4c-1,0-1.9-0.1-2.7-0.4
				c-0.8-0.3-1.6-0.7-2.2-1.1c-0.6-0.5-1.1-1-1.4-1.7c-0.3-0.6-0.5-1.3-0.5-2.1c0-0.7,0.2-1.4,0.5-2.1c0.3-0.7,0.8-1.2,1.4-1.7
				C96.3,8.7,97,8.3,97.9,8c0.8-0.3,1.8-0.4,2.8-0.4c1,0,1.9,0.1,2.8,0.4c0.8,0.3,1.6,0.7,2.2,1.1c0.6,0.5,1.1,1,1.4,1.7
				c0.3,0.6,0.5,1.3,0.5,2.1C107.6,13.7,107.4,14.4,107,15z M105.2,11.4c-0.2-0.5-0.6-0.9-1-1.3c-0.4-0.4-1-0.6-1.6-0.9
				c-0.6-0.2-1.2-0.3-2-0.3c-0.7,0-1.4,0.1-2,0.3c-0.6,0.2-1.1,0.5-1.5,0.9c-0.4,0.4-0.7,0.8-1,1.3c-0.2,0.5-0.4,1-0.4,1.6
				c0,0.6,0.1,1.1,0.4,1.6c0.2,0.5,0.6,0.9,1,1.3c0.4,0.4,1,0.6,1.6,0.9c0.6,0.2,1.2,0.3,2,0.3c0.7,0,1.4-0.1,2-0.3
				c0.6-0.2,1.1-0.5,1.5-0.8c0.4-0.4,0.8-0.8,1-1.3c0.2-0.5,0.4-1,0.4-1.6C105.5,12.4,105.4,11.9,105.2,11.4z"/>
		</g>
	</g>
</g>
</svg>
